<mxfile host="app.diagrams.net" modified="2022-07-18T09:51:12.142Z" agent="5.0 (X11; Linux x86_64) AppleWebKit/537.36 (KHTML, like Gecko) Chrome/103.0.0.0 Safari/537.36" etag="5KGLYPAN5IIr73LQniY8" version="16.5.6" type="github">
  <diagram id="oXYSmh-GCWIDTML4-bH2" name="Page-1">
    <mxGraphModel dx="1422" dy="832" grid="1" gridSize="10" guides="1" tooltips="1" connect="1" arrows="1" fold="1" page="1" pageScale="1" pageWidth="850" pageHeight="1100" math="0" shadow="0">
      <root>
        <mxCell id="0" />
        <mxCell id="1" parent="0" />
        <mxCell id="kqTDMFvDRpqGVh2tXkA1-6" value="云端" style="rounded=1;whiteSpace=wrap;html=1;fontSize=24;verticalAlign=top;align=left;spacing=24;" vertex="1" parent="1">
          <mxGeometry x="200" y="120" width="480" height="310" as="geometry" />
        </mxCell>
        <mxCell id="kqTDMFvDRpqGVh2tXkA1-9" style="edgeStyle=orthogonalEdgeStyle;rounded=0;orthogonalLoop=1;jettySize=auto;html=1;exitX=1;exitY=0.5;exitDx=0;exitDy=0;entryX=0;entryY=0.5;entryDx=0;entryDy=0;entryPerimeter=0;fontSize=12;" edge="1" parent="1" source="kqTDMFvDRpqGVh2tXkA1-1" target="kqTDMFvDRpqGVh2tXkA1-8">
          <mxGeometry relative="1" as="geometry" />
        </mxCell>
        <mxCell id="kqTDMFvDRpqGVh2tXkA1-1" value="&lt;font&gt;&lt;b&gt;&lt;font style=&quot;font-size: 14px&quot;&gt;在线服务 (C++)&lt;/font&gt;&lt;br&gt;&lt;/b&gt;&lt;span style=&quot;font-size: 12px ; font-family: &amp;#34;helvetica&amp;#34;&quot;&gt;&lt;br&gt;&lt;div style=&quot;text-align: left&quot;&gt;&lt;span style=&quot;font-family: &amp;#34;helvetica&amp;#34;&quot;&gt;持续难例挖掘，&lt;/span&gt;&lt;span&gt;存储于缓冲区中&lt;/span&gt;&lt;/div&gt;&lt;/span&gt;&lt;/font&gt;" style="rounded=0;whiteSpace=wrap;html=1;spacingLeft=0;spacingRight=0;spacing=4;" vertex="1" parent="1">
          <mxGeometry x="360" y="170" width="120" height="80" as="geometry" />
        </mxCell>
        <mxCell id="kqTDMFvDRpqGVh2tXkA1-3" value="&lt;font&gt;&lt;b style=&quot;font-size: 14px&quot;&gt;服务管理 (Python)&lt;br&gt;&lt;/b&gt;&lt;span&gt;&lt;br&gt;&lt;div style=&quot;text-align: left&quot;&gt;&lt;span&gt;1. 每日定时将缓冲区中的数据导出至难例池。难例池中仅保留历史最优的 1k 个难例。&lt;/span&gt;&lt;/div&gt;&lt;div style=&quot;text-align: left&quot;&gt;&lt;span&gt;&lt;br&gt;&lt;/span&gt;&lt;/div&gt;&lt;div style=&quot;text-align: left&quot;&gt;&lt;span&gt;2. 若当日服务器收到新模型，则将新模型上线，重启服务，并清空难例池。&lt;/span&gt;&lt;/div&gt;&lt;/span&gt;&lt;/font&gt;" style="rounded=0;whiteSpace=wrap;html=1;spacing=4;" vertex="1" parent="1">
          <mxGeometry x="240" y="280" width="400" height="120" as="geometry" />
        </mxCell>
        <mxCell id="kqTDMFvDRpqGVh2tXkA1-7" value="难例池" style="shape=cylinder3;whiteSpace=wrap;html=1;boundedLbl=1;backgroundOutline=1;size=15;fontSize=12;" vertex="1" parent="1">
          <mxGeometry x="590" y="170" width="50" height="80" as="geometry" />
        </mxCell>
        <mxCell id="kqTDMFvDRpqGVh2tXkA1-10" style="edgeStyle=orthogonalEdgeStyle;rounded=0;orthogonalLoop=1;jettySize=auto;html=1;exitX=1;exitY=0.5;exitDx=0;exitDy=0;exitPerimeter=0;entryX=0;entryY=0.5;entryDx=0;entryDy=0;entryPerimeter=0;fontSize=12;" edge="1" parent="1" source="kqTDMFvDRpqGVh2tXkA1-8" target="kqTDMFvDRpqGVh2tXkA1-7">
          <mxGeometry relative="1" as="geometry" />
        </mxCell>
        <mxCell id="kqTDMFvDRpqGVh2tXkA1-8" value="日缓冲" style="shape=cylinder3;whiteSpace=wrap;html=1;boundedLbl=1;backgroundOutline=1;size=15;fontSize=12;" vertex="1" parent="1">
          <mxGeometry x="510" y="170" width="55" height="80" as="geometry" />
        </mxCell>
        <mxCell id="kqTDMFvDRpqGVh2tXkA1-16" style="edgeStyle=orthogonalEdgeStyle;rounded=0;orthogonalLoop=1;jettySize=auto;html=1;exitX=0;exitY=0;exitDx=80;exitDy=30;exitPerimeter=0;fontSize=12;" edge="1" parent="1" source="kqTDMFvDRpqGVh2tXkA1-11" target="kqTDMFvDRpqGVh2tXkA1-1">
          <mxGeometry relative="1" as="geometry" />
        </mxCell>
        <mxCell id="kqTDMFvDRpqGVh2tXkA1-11" value="新模型&lt;br&gt;暂存区" style="shape=cube;whiteSpace=wrap;html=1;boundedLbl=1;backgroundOutline=1;darkOpacity=0.05;darkOpacity2=0.1;fontSize=12;size=10;" vertex="1" parent="1">
          <mxGeometry x="240" y="200" width="80" height="50" as="geometry" />
        </mxCell>
        <mxCell id="kqTDMFvDRpqGVh2tXkA1-17" value="后端" style="rounded=1;whiteSpace=wrap;html=1;fontSize=24;verticalAlign=top;align=left;spacing=24;" vertex="1" parent="1">
          <mxGeometry x="200" y="550" width="470" height="310" as="geometry" />
        </mxCell>
      </root>
    </mxGraphModel>
  </diagram>
</mxfile>
